<svg width="26" height="26" viewBox="0 0 26 26" fill="none" xmlns="http://www.w3.org/2000/svg">
<path d="M1 19.7013V25H5.92308M1 19.7013H25M1 19.7013V13.7792M25 19.7013V25H18.6923M25 19.7013V13.7792M25 13.7792H18.6923M25 13.7792V7.38961M1 13.7792V1H12.3846M1 13.7792H5.92308M5.92308 13.7792V25M5.92308 13.7792H12.3846M5.92308 25H12.3846M12.3846 13.7792V25M12.3846 13.7792H18.6923M12.3846 13.7792V7.38961M12.3846 25H18.6923M18.6923 13.7792V25M18.6923 13.7792V1M12.3846 1H18.6923M12.3846 1V7.38961M18.6923 1H25V7.38961M12.3846 7.38961H25" stroke="black" stroke-opacity="0.55"/>
</svg>
